<svg xmlns="http://www.w3.org/2000/svg" viewBox="0 0 5165.44 5165.44"><defs><style>.cls-1{fill:#ffd100;}.cls-2{fill:none;stroke:#231f20;stroke-miterlimit:2.61;stroke-width:0.5px;}.cls-3,.cls-4{fill:#231f20;}.cls-4{fill-rule:evenodd;}.cls-5{fill:#8dc63f;}</style></defs><g id="Layer_2" data-name="Layer 2"><g id="Layer_1-2" data-name="Layer 1"><circle class="cls-1" cx="2582.72" cy="2582.72" r="2582.47"/><circle class="cls-2" cx="2582.72" cy="2582.72" r="2582.47"/><rect class="cls-2" x="710.99" y="3525.14" width="53.67" height="287.32"/><polygon class="cls-2" points="1139.2 3703.32 998.59 3525.14 954.72 3525.14 954.72 3812.47 1008.84 3812.47 1008.84 3618.73 1159.69 3812.47 1193.3 3812.47 1193.3 3525.14 1139.2 3525.14 1139.2 3703.32"/><polygon class="cls-2" points="4288.83 3525.14 4221.59 3525.14 4112.56 3646.66 4112.56 3525.14 4058.45 3525.14 4058.45 3812.47 4112.56 3812.47 4112.56 3685.2 4232.67 3812.47 4299.47 3812.47 4299.47 3809.2 4161.34 3664.28 4288.83 3526.77 4288.83 3525.14"/><polygon class="cls-2" points="3042.99 1457.92 3072.64 1517.07 3025.95 1516.73 3042.99 1457.92"/><rect class="cls-3" x="710.99" y="3525.14" width="53.67" height="287.32"/><polygon class="cls-4" points="954.72 3525.14 954.72 3812.47 1008.84 3812.47 1008.84 3618.73 1159.69 3812.47 1193.3 3812.47 1193.3 3525.14 1139.2 3525.14 1139.2 3703.32 998.59 3525.14 954.72 3525.14"/><path class="cls-2" d="M3855.67,3739.1c-18.84,18.87-47.13,29.12-72.14,29.12-70.91,0-98.39-49.61-98.78-97.16-.39-48,29.51-99.6,98.78-99.6,25,0,50.44,8.61,69.29,27.06l36.06-34.85c-29.5-29.11-66.4-43.86-105.35-43.86-103.68,0-152.47,76.23-152.06,151.25.41,74.61,45.49,148,152.06,148,41.41,0,79.54-13.54,109-42.64Z"/><path class="cls-4" d="M3714.23,2624.49l58.15,119.37H4195.3a79.67,79.67,0,1,1,0,159.34h-86c-55.52,2-115.21,1.08-172.86,0h-92.13l59.81,120.47,165.58-.23,116.82,234.93,142.27-.35-114.48-234.36c133.8-6.14,198.62-127.9,175-249.16-17.57-90.27-80.31-141-169.49-148.39-28.67-2.37-57.87-1.45-84-1.5-139.65-.25-421.58-.12-421.58-.12"/><path class="cls-2" d="M1439.52,3812.47h54.09V3574.33h91v-49.19H1348.51v49.19h91Z"/><path class="cls-2" d="M1966.52,3759.2h-161.1v-64.78h155.37V3644H1805.42v-66.39h161.1v-52.47H1751.74v287.33h214.78Z"/><path class="cls-2" d="M2398,3808.79l-86.89-98c54.51-11.06,72.54-50.84,72.54-90.37,0-49.8-35.64-94.91-103.29-95.31-45.5.4-91,0-136.5,0v287.33H2198v-95.92H2250l83.62,95.92H2398Z"/><path class="cls-2" d="M2280.38,3575.56c34,0,49.2,23,49.2,46.12s-14.76,46.11-49.2,46.11H2198v-92.23Z"/><polygon class="cls-2" points="2803.7 3525.14 2803.7 3812.47 3005.37 3812.47 3005.37 3762.47 2857.8 3762.47 2857.8 3525.14 2803.7 3525.14"/><path class="cls-2" d="M3304.89,3519.81c-99.2,0-147.56,75.83-147.56,151.25s46.71,148,147.56,148,146.35-74.2,147.15-148.39C3452.87,3595.64,3403.67,3519.81,3304.89,3519.81Z"/><path class="cls-2" d="M3304.89,3569c67.64,0,94.7,54.1,93.87,102.48-.83,47.13-26.23,98-93.87,98s-93.06-50.45-94.27-97.58C3209.37,3623.51,3237.24,3569,3304.89,3569Z"/><path class="cls-2" d="M1623.52,1952.91c17.83-19.47,162.31-172.49,162.31-172.49l-170.16,662.12,237.41.58,133.36-268.21c75.42-46.14,150.41-93.22,226.92-137.43l449.13-1.52,201.45,407.55,236.9-.37-252.65-512.45-474.63-513s-282.77-10.41-281.86-10.82c0,0-183.5,82.88-257.51,121.26C1798.66,1591,1623.52,1952.91,1623.52,1952.91Z"/><path class="cls-2" d="M3303.63,1647.86l39.65,78.8c93-24.66,183.85-86.42,209.18-141.79C3520.79,1601.85,3410.23,1646.32,3303.63,1647.86Z"/><path class="cls-2" d="M1968.27,2328.2c22.22,39.2,49,76.27,70.93,115l233.12-.06L2151.62,2143l-123.14,73S1984.79,2292.59,1968.27,2328.2Z"/><polygon class="cls-2" points="2466.47 2442.83 2682.75 2442.6 2703.25 2248.4 2623.99 2087.16 2464.6 2086.75 2466.47 2442.83"/><path class="cls-2" d="M2427.7,1394.4c156.23,167,311.52,334.52,467.88,501.37l229.77-45.58c4.12,43,25.16,329.29,25.16,329.29l-54.67,143.25,52.76,107,95-169.73c10.14-18,18.19-33.62,18.19-33.62l41.46-355.06s179-31.42,258.71-141.64c-45.46,25.37-189.94,53.86-252.78,54.85l-228.45-77,204.83,29.34L3036.61,1226l-129.72-.86s-24.13-8.43-59.74-23.8c-18.73-8.09-31.63-14.85-31.63-14.85C2684.35,1250.27,2557.58,1326.71,2427.7,1394.4Z"/><path class="cls-4" d="M3013.23,1516.73l17-58.81,29.65,59.14ZM2427.7,1394.4c156.23,167,311.52,334.52,467.88,501.37l229.77-45.58c4.12,43,25.16,329.29,25.16,329.29l-54.67,143.25,52.76,107,95-169.73c10.14-18,18.19-33.62,18.19-33.62l41.46-355.06s179-31.42,258.71-141.64c-45.46,25.37-189.94,53.86-252.78,54.85l-228.45-77,204.83,29.34L3036.61,1226l-129.72-.86s-24.13-8.43-59.74-23.8c-18.73-8.09-31.63-14.85-31.63-14.85C2684.35,1250.27,2557.58,1326.71,2427.7,1394.4Z"/><path class="cls-4" d="M2848.19,1930.69l-474.63-513s-282.77-10.41-281.86-10.82c0,0-183.5,82.88-257.51,121.26-35.53,63-210.67,424.83-210.67,424.83,17.83-19.47,162.31-172.49,162.31-172.49l-170.16,662.12,237.41.58,133.36-268.21c75.42-46.14,150.41-93.22,226.92-137.43l449.13-1.52,201.45,407.55,236.9-.37Z"/><path class="cls-4" d="M2272.32,2443.12,2151.62,2143l-123.14,73s-43.69,76.57-60.21,112.18c22.22,39.2,49,76.27,70.93,115Z"/><polygon class="cls-4" points="2464.6 2086.75 2466.47 2442.83 2682.75 2442.6 2703.25 2248.4 2623.99 2087.16 2464.6 2086.75"/><path class="cls-4" d="M3303.63,1647.86l39.65,78.8c93-24.66,183.85-86.42,209.18-141.79-31.67,17-142.23,61.45-248.83,63"/><path class="cls-4" d="M3251.32,3259.06c8.51-10,107-213.19,122.13-243.78l91.23-184c5.54-11.28,31.08-60.94,31.08-60.94l97,197.93-117.59.38-55.47,116.61,233.14-.16,88.53,174.4,139-.93L3566,2625.22l-141.91-.31c-53.36,102.2-105.08,210.4-157.39,316.88-50.86,103.49-108.22,211-156.23,317.62Z"/><path class="cls-4" d="M1576.53,2624.66s46.79,88.06,59.4,110.34c0,0,379.38-5.89,458.48-1.47,41.66,2.33,70.6,14.84,102,35.48,144.76,95,108.7,339.28-71.07,374.33-24.07,4.71-144.29,4.23-171.19,1.4L1952.62,2834l-136.8.78.06,423.16c17.61,4.15,225.14,1.65,261.71,1.65,90.36,0,150.35-1.25,212.61-48,43.4-32.56,88.94-83.51,111.46-151.63,24.91-75.4,28.47-147,5.47-224.19-13.4-45-43.14-96.28-73.79-125.76-44.42-42.72-99.19-81.24-162.49-84.69-55.72-3-594.32-.66-594.32-.66"/><path class="cls-4" d="M2888.58,2624.66s0,2-.1,8.32l.28,232.86-254,.91c0-80.68.28-161.43,0-242.09H2490V3259.4l144.82.08v-278.2l255.6.72,0,277.56,142.25-1-.3-633.91-143.79,0"/><polygon class="cls-4" points="1292.97 2624.45 1606.6 3258.33 1748.43 3258.8 1436.31 2624.46 1292.97 2624.45"/><path class="cls-4" d="M904.3,3259.08c8.48-10,107-213.16,122.1-243.77l91.25-183.94c5.54-11.29,31.07-60.95,31.07-60.95l97,197.94-117.59.37-55.47,116.62,233.15-.16,88.53,174.41,139-.93-314.41-633.4L1077,2625c-53.36,102.2-105.08,210.42-157.39,316.89-50.85,103.48-108.22,211-156.22,317.6Z"/><rect class="cls-5" x="723.71" y="3332.8" width="3730.74" height="21.07"/><rect class="cls-5" x="723.71" y="3957.87" width="3730.74" height="21.07"/><polygon class="cls-4" points="1348.51 3525.14 1348.51 3574.32 1439.52 3574.32 1439.52 3812.47 1493.61 3812.47 1493.61 3574.32 1584.62 3574.32 1584.62 3525.14 1348.51 3525.14"/><polygon class="cls-4" points="1751.73 3525.14 1751.73 3812.47 1966.52 3812.47 1966.52 3759.2 1805.42 3759.2 1805.42 3694.42 1960.79 3694.42 1960.79 3644 1805.42 3644 1805.42 3577.61 1966.52 3577.61 1966.52 3525.14 1751.73 3525.14"/><path class="cls-4" d="M2198,3575.56h82.39c34,0,49.2,23,49.2,46.12s-14.76,46.11-49.2,46.11H2198Zm-54.11-50.42v287.33H2198v-95.92H2250l83.62,95.92H2398v-3.68l-86.89-98c54.51-11.06,72.54-50.84,72.54-90.37,0-49.8-35.64-94.91-103.29-95.31C2234.88,3525.54,2189.39,3525.14,2143.88,3525.14Z"/><polygon class="cls-4" points="2803.7 3525.14 2803.7 3812.47 3005.37 3812.47 3005.37 3762.47 2857.8 3762.47 2857.8 3525.14 2803.7 3525.14"/><path class="cls-4" d="M3304.89,3519.81c-99.2,0-147.56,75.83-147.56,151.25s46.71,148,147.56,148,146.35-74.2,147.15-148.39c.83-75-48.37-150.84-147.15-150.84m0,49.19c67.64,0,94.7,54.1,93.87,102.48-.83,47.13-26.23,98-93.87,98s-93.06-50.45-94.27-97.58C3209.37,3623.51,3237.24,3569,3304.89,3569Z"/><path class="cls-4" d="M3783.53,3519.81c-103.68,0-152.47,76.23-152.06,151.25.41,74.61,45.49,148,152.06,148,41.41,0,79.54-13.54,109-42.64l-36.9-37.3c-18.84,18.87-47.13,29.12-72.14,29.12-70.91,0-98.39-49.61-98.78-97.16-.39-48,29.51-99.6,98.78-99.6,25,0,50.44,8.61,69.29,27.06l36.06-34.85c-29.5-29.11-66.4-43.86-105.35-43.86"/><polygon class="cls-4" points="4058.45 3525.14 4058.45 3812.47 4112.56 3812.47 4112.56 3685.2 4232.67 3812.47 4299.47 3812.47 4299.47 3809.2 4161.34 3664.28 4288.83 3526.77 4288.83 3525.14 4221.59 3525.14 4112.56 3646.66 4112.56 3525.14 4058.45 3525.14"/></g></g></svg>